# AST/ASF file generated using VICON BodyLanguage
# -----------------------------------------------
:version 1.10
:name VICON
:units
  mass 1.0
  length 0.45
  angle deg
:documentation
   .ast/.asf automatically generated from VICON data using
   VICON BodyBuilder and BodyLanguage model FoxedUp or BRILLIANT.MOD
:root
   order TX TY TZ RX RY RZ
   axis XYZ
   position 0 0 0  
   orientation 0 -0 0 
:bonedata
  begin
     id 1 
     name lhipjoint
     direction 0.500677 -0.737119 0.453848 
     length 2.34727 
     axis 0 -0 0  XYZ
  end
  begin
     id 2 
     name lfemur
     direction 0.34202 -0.939693 0  
     length 7.53653  
     axis 0 -0 20  XYZ
    dof rx ry rz
    limits (-160.0 20.0)
           (-70.0 70.0)
           (-60.0 70.0)
  end
  begin
     id 3 
     name ltibia
     direction 0.34202 -0.939693 0   
     length 6.85572   
     axis 0 -0 20   XYZ
    dof rx
    limits (-10.0 170.0)
  end
  begin
     id 4 
     name lfoot
     direction 0.155313 -0.426718 0.890949   
     length 2.18324   
     axis -90 -1.13533e-015 20   XYZ
    dof rx rz
    limits (-45.0 90.0)
           (-70.0 20.0)
  end
  begin
     id 5 
     name ltoes
     direction 1.53474e-011 -4.21647e-011 1   
     length 1.06748   
     axis -90 -1.13533e-015 20   XYZ
    dof rx
    limits (-90.0 20.0)
  end
  begin
     id 6 
     name rhipjoint
     direction -0.632471 -0.659587 0.406111   
     length 2.62319  
     axis 0 -0 0  XYZ 
  end
  begin
     id 7 
     name rfemur
     direction -0.34202 -0.939693 0   
     length 7.21735   
     axis 0 -0 -20   XYZ
    dof rx ry rz
    limits (-160.0 20.0)
           (-70.0 70.0)
           (-70.0 60.0)
  end
  begin
     id 8 
     name rtibia
     direction -0.34202 -0.939693 0   
     length 7.02558   
     axis 0 -0 -20   XYZ
    dof rx
    limits (-10.0 170.0)
 end
 begin
     id 9 
     name rfoot
     direction -0.16057 -0.441164 0.882945   
     length 2.10014  
     axis -90 1.13533e-015 -20   XYZ
    dof rx rz
    limits (-45.0 90.0)
           (-20.0 70.0)
  end
  begin
     id 10 
     name rtoes
     direction -1.53553e-011 -4.2192e-011 1   
     length 1.02554   
     axis -90 1.13533e-015 -20   XYZ
    dof rx
    limits (-90.0 20.0)
  end
  begin
     id 11 
     name lowerback
     direction 0.0401429 0.998861 -0.0258085   
     length 1.80848   
     axis 0 -0 0   XYZ
    dof rx ry rz
    limits (-20.0 45.0)
           (-30.0 30.0)
           (-30.0 30.0)
  end
  begin
     id 12 
     name upperback
     direction -0.0130978 0.999914 -0.000352645   
     length 1.8116   
     axis 0 -0 0   XYZ
    dof rx ry rz
    limits (-20.0 45.0)
           (-30.0 30.0)
           (-30.0 30.0)
  end
  begin
     id 13 
     name thorax
     direction -0.0300198 0.999453 0.0138573   
     length 1.81778   
     axis 0 -0 0   XYZ
    dof rx ry rz
    limits (-20.0 45.0)
           (-30.0 30.0)
           (-30.0 30.0)
  end
  begin
     id 14 
     name lowerneck
     direction -0.0401726 0.999191 -0.00173647   
     length 2.10594   
     axis 0 -0 0   XYZ
    dof rx ry rz
    limits (-20.0 45.0)
           (-30.0 30.0)
           (-30.0 30.0)
  end
  begin
     id 15 
     name upperneck
     direction 0.0119835 0.998501 0.0534085   
     length 2.07325   
     axis 0 -0 0   XYZ
    dof rx ry rz
    limits (-20.0 45.0)
           (-30.0 30.0)
           (-30.0 30.0)
  end
  begin
     id 16
     name head
     direction 0.00628309 0.999826 0.0175921  
     length 2.15096  
     axis 0 -0 0   XYZ
    dof rx ry rz
    limits (-20.0 45.0)
           (-30.0 30.0)
           (-30.0 30.0)
  end
  begin
     id 17 
     name lclavicle
     direction 0.895501 0.429681 -0.115981  
     length 4.18092  
     axis 0 -0 0   XYZ
    dof ry rz
    limits (-20.0 10.0)
           (0.0 20.0)
  end
  begin
     id 18 
     name lhumerus
     direction 1 -4.48961e-011 -3.38433e-028   
     length 5.77237   
     axis 180 -30 -90   XYZ
    dof rx ry rz
    limits (-60.0 90.0)
           (-90.0 90.0)
           (-90.0 90.0)
  end
  begin
     id 19
     name lradius
     direction 1 -4.4901e-011 1.11983e-026   
     length 2.91878   
     axis 180 -30 -90   XYZ
    dof rx
    limits (-10.0 170.0)
  end
  begin
     id 20
     name lwrist
     direction 1 -4.48934e-011 1.88176e-026   
     length 1.45939   
     axis -1.23311e-014 90 90   XYZ
    dof ry
    limits (-180.0 0.0)
 end
  begin
     id 21 
     name lhand
     direction 1 -4.4895e-011 3.76352e-026   
     length 1.06566   
     axis -2.40147e-014 90 90   XYZ
    dof rx rz
    limits (-90.0 90.0)
           (-45.0 45.0)
  end
  begin
     id 22 
     name lfingers
     direction 1 -4.49005e-011 7.52705e-026   
     length 0.859162   
     axis -4.80295e-014 90 90   XYZ
    dof rx
    limits (0.0 90.0)
  end
  begin
     id 23
     name lthumb
     direction 0.707107 -6.34885e-011 0.707107   
     length 1.23359   
     axis -90 45 -9.86935e-015   XYZ
    dof rx rz
    limits (-45.0 45.0)
           (-45.0 45.0)
  end
  begin
     id 24 
     name rclavicle
     direction -0.91006 0.40451 -0.0903492   
     length 4.23293  
     axis 0 -0 0   XYZ 
    dof ry rz
    limits (-10.0 20.0)
           (-20.0 0.0)
  end
  begin
     id 25 
     name rhumerus
     direction -1 -4.4897e-011 1.7415e-027  
     length 5.49854   
     axis 180 30 90   XYZ
    dof rx ry rz
    limits (-90.0 60.0)
           (-90.0 90.0)
           (-90.0 90.0)
  end
  begin
     id 26 
     name rradius
     direction -1 -4.48963e-011 1.21259e-026   
     length 3.1186   
     axis 180 30 90   XYZ
    dof rx
    limits (-10.0 170.0)
  end
  begin
     id 27 
     name rwrist
     direction -1 -4.48967e-011 1.88176e-026   
     length 1.5593   
     axis -1.23311e-014 -90 -90   XYZ
    dof ry
    limits (-180.0 0.0)
  end
  begin
     id 28
     name rhand
     direction -1 -4.4895e-011 3.76352e-026   
     length 0.71207   
     axis -2.40147e-014 -90 -90   XYZ
    dof rx rz
    limits (-90.0 90.0)
           (-45.0 45.0)
  end
  begin
     id 29
     name rfingers
     direction -1 -4.49005e-011 7.52705e-026   
     length 0.574089   
     axis -4.80295e-014 -90 -90   XYZ
    dof rx
    limits (0.0 90.0)
  end
  begin
     id 30
     name rthumb
     direction -0.707107 -6.34982e-011 0.707107   
     length 0.824281   
     axis -90 -45 9.86935e-015   XYZ
    dof rx rz
    limits (-45.0 45.0)
           (-45.0 45.0)
  end
:hierarchy
  begin
    root lhipjoint rhipjoint lowerback
    lhipjoint lfemur
    lfemur ltibia
    ltibia lfoot
    lfoot ltoes
    rhipjoint rfemur
    rfemur rtibia
    rtibia rfoot
    rfoot rtoes
    lowerback upperback
    upperback thorax
    thorax lowerneck lclavicle rclavicle
    lowerneck upperneck
    upperneck head
    lclavicle lhumerus
    lhumerus lradius
    lradius lwrist
    lwrist lhand lthumb
    lhand lfingers
    rclavicle rhumerus
    rhumerus rradius
    rradius rwrist
    rwrist rhand rthumb
    rhand rfingers
  end

#!OML:ASF C:\ViconDB\ViconDB\414\Spring2016\042216\male.ASF
:FULLY-SPECIFIED
:DEGREES
187
root -17.1732 17.1229 12.0962 -74.4761 84.7129 -78.2753
lowerback -0.723395 -0.231353 9.83929
upperback -0.325325 -0.360256 -0.333455
thorax 0.00373167 -0.186998 -5.87654
lowerneck -3.47923 3.15787 -2.45313
upperneck -7.40782 4.35798 -0.860593
head -1.75055 2.30992 0.114728
rclavicle -4.73356e-015 -3.20043e-014
rhumerus -20.7902 8.8557 -97.5066
rradius 33.3443
rwrist 24.6452
rhand 10.497 -18.9387
rfingers 7.12502
rthumb 35.5976 -45.3531
lclavicle -4.73356e-015 -3.20043e-014
lhumerus -44.5334 32.8013 70.4671
lradius 26.8529
lwrist -26.3446
lhand -7.15449 12.1917
lfingers 7.12502
lthumb 18.7222 41.3108
rfemur 21.1282 6.06732 27.1334
rtibia -2.22639e-014
rfoot 0.439692 -1.1567
rtoes -27.2599
lfemur -29.0085 -2.30298 -13.8214
ltibia 32.5089
lfoot -13.5752 15.707
ltoes -10.7163
188
root -16.9613 17.1469 12.0458 -73.2901 84.782 -76.9175
lowerback -0.723474 -0.316329 9.86726
upperback -0.351883 -0.472853 -0.402284
thorax -0.0444799 -0.247088 -5.96522
lowerneck -3.68975 3.2078 -2.39421
upperneck -6.72336 4.42623 -0.735913
head -1.49793 2.32649 0.154903
rclavicle -4.42296e-015 1.19271e-015
rhumerus -21.458 7.99213 -97.3489
rradius 32.2926
rwrist 25.1597
rhand 10.1644 -18.9183
rfingers 7.12502
rthumb 35.2823 -45.408
lclavicle -4.42296e-015 1.19271e-015
lhumerus -44.2414 32.3438 70.9324
lradius 26.8422
lwrist -26.4018
lhand -7.21024 12.3067
lfingers 7.12502
lthumb 18.6686 41.4309
rfemur 21.5157 6.21396 26.8039
rtibia -5.40694e-014
rfoot 3.89938 -1.4888
rtoes -28.1036
lfemur -27.9682 -2.69987 -14.0954
ltibia 32.5623
lfoot -14.7095 15.9341
ltoes -11.8861
189
root -16.7507 17.1677 11.9966 -72.4706 85.0471 -76.0045
lowerback -0.867372 -0.371498 9.62306
upperback -0.381539 -0.559995 -0.454703
thorax -0.00763942 -0.290111 -5.88373
lowerneck -3.86765 3.22501 -2.46404
upperneck -6.11111 4.45649 -0.540741
head -1.28136 2.32874 0.236098
rclavicle 1.35174e-014 -2.78299e-015
rhumerus -22.0654 7.09189 -96.9948
rradius 31.2419
rwrist 25.66
rhand 10.8117 -18.9293
rfingers 7.12502
rthumb 35.8958 -45.2713
lclavicle 1.35174e-014 -2.78299e-015
lhumerus -44.0215 32.3712 71.2353
lradius 26.8202
lwrist -26.4785
lhand -7.25552 12.0635
lfingers 7.12502
lthumb 18.6251 41.1919
rfemur 16.728 6.21041 26.2473
rtibia 10.1789
rfoot 2.71336 -1.23528
rtoes -29.0135
lfemur -27.0153 -2.9403 -14.6445
ltibia 32.5715
lfoot -15.4239 16.1756
ltoes -11.4396
190
root -16.5443 17.1854 11.9507 -69.1301 85.2502 -72.4688
lowerback -0.805497 -0.461188 9.26771
upperback -0.365647 -0.671706 -0.430293
thorax -0.0403534 -0.346674 -5.65714
lowerneck -4.12352 3.28295 -2.66427
upperneck -5.55051 4.54834 -0.358622
head -1.07411 2.36667 0.334932
rclavicle 8.7341e-015 -8.34896e-015
rhumerus -22.5743 6.29364 -96.5981
rradius 30.121
rwrist 26.3571
rhand 10.6908 -19.0892
rfingers 7.12502
rthumb 35.7812 -45.4592
lclavicle 8.7341e-015 -8.34896e-015
lhumerus -43.6318 32.152 71.9447
lradius 26.9819
lwrist -26.4576
lhand -7.16995 11.981
lfingers 7.12502
lthumb 18.7074 41.1014
rfemur 13.71 5.91273 25.5508
rtibia 16.6732
rfoot 3.85315 -0.683867
rtoes -31.2187
lfemur -25.9079 -2.86421 -15.2131
ltibia 32.4917
lfoot -16.4412 16.4948
ltoes -11.3458
191
root -16.3437 17.2064 11.9102 -65.7706 85.3737 -69.0059
lowerback -0.740742 -0.54306 8.92195
upperback -0.418216 -0.769514 -0.393333
thorax -0.142319 -0.401465 -5.42222
lowerneck -4.34117 3.33077 -2.82872
upperneck -4.94448 4.62414 -0.154884
head -0.8608 2.39502 0.434413
rclavicle 1.57537e-014 -1.92821e-014
rhumerus -23.1166 5.34313 -96.1468
rradius 28.9071
rwrist 27.9544
rhand 10.9522 -18.8666
rfingers 7.12502
rthumb 36.0289 -45.176
lclavicle 1.57537e-014 -1.92821e-014
lhumerus -43.1729 31.5056 72.825
lradius 27.3301
lwrist -25.5247
lhand -6.98002 12.0995
lfingers 7.12502
lthumb 18.89 41.2022
rfemur 11.0468 5.73414 25.0555
rtibia 21.9899
rfoot 5.61406 -0.577915
rtoes -33.4389
lfemur -24.8014 -2.63603 -15.6979
ltibia 32.1174
lfoot -17.0803 16.5974
ltoes -11.4619
192
root -16.145 17.2369 11.8744 -61.3672 85.593 -64.4151
lowerback -0.58954 -0.611602 8.46962
upperback -0.462393 -0.843367 -0.470984
thorax -0.279085 -0.445567 -5.24601
lowerneck -4.36285 3.37724 -2.76345
upperneck -4.4946 4.68112 -0.0125023
head -0.72155 2.4131 0.472582
rclavicle 1.70334e-014 -5.1684e-015
rhumerus -23.6737 4.38102 -95.7613
rradius 27.8408
rwrist 29.0923
rhand 11.3699 -19.0538
rfingers 7.12502
rthumb 36.4244 -45.2649
lclavicle 1.70334e-014 -5.1684e-015
lhumerus -42.7086 30.7052 73.6429
lradius 27.7807
lwrist -24.4108
lhand -6.92964 12.1389
lfingers 7.12502
lthumb 18.9385 41.2369
rfemur 8.64415 5.43248 24.4341
rtibia 26.8459
rfoot 6.93996 -0.502646
rtoes -34.1815
lfemur -23.4767 -2.38343 -16.3025
ltibia 31.4951
lfoot -17.2735 16.6349
ltoes -12.24
193
root -15.9484 17.2908 11.8433 -55.3007 85.8917 -58.2021
lowerback -0.435297 -0.690601 7.78058
upperback -0.508954 -0.932323 -0.528143
thorax -0.416615 -0.495649 -4.91411
lowerneck -4.32766 3.42709 -2.74654
upperneck -4.18003 4.7415 0.0282271
head -0.632285 2.43693 0.48524
rclavicle -1.33558e-015 -1.2921e-014
rhumerus -24.2133 3.24885 -95.2181
rradius 26.8438
rwrist 30.66
rhand 11.7744 -18.8741
rfingers 7.12502
rthumb 36.8073 -44.9882
lclavicle -1.33558e-015 -1.2921e-014
lhumerus -42.1637 29.7468 74.6296
lradius 28.2698
lwrist -23.3416
lhand -6.98476 12.2255
lfingers 7.12502
lthumb 18.8855 41.3287
rfemur 6.31171 5.16996 23.6789
rtibia 31.3405
rfoot 7.28422 -0.778282
rtoes -33.5864
lfemur -22.0637 -2.00992 -17.0498
ltibia 30.5887
lfoot -17.7015 16.5766
ltoes -12.2454
194
root -15.7581 17.3267 11.8199 -51.2702 86.3298 -53.9064
lowerback -0.163683 -0.857009 7.02427
upperback -0.540059 -1.13295 -0.66159
thorax -0.616899 -0.602395 -4.62062
lowerneck -4.16783 3.49372 -2.62751
upperneck -3.94513 4.81878 0.189741
head -0.588791 2.4683 0.515053
rclavicle -1.03182e-014 5.76476e-015
rhumerus -24.7942 2.10165 -94.7957
rradius 25.9672
rwrist 31.7824
rhand 12.3648 -19.0584
rfingers 7.12502
rthumb 37.3657 -45.0274
lclavicle -1.03182e-014 5.76476e-015
lhumerus -41.5291 28.4842 75.5727
lradius 28.7898
lwrist -21.7176
lhand -7.17065 12.471
lfingers 7.12502
lthumb 18.7067 41.5915
rfemur 4.23503 4.68527 22.9883
rtibia 35.4631
rfoot 6.3147 -1.37426
rtoes -32.7958
lfemur -20.5145 -1.83754 -17.803
ltibia 29.4984
lfoot -17.8404 16.4367
ltoes -12.6205
195
root -15.5778 17.3578 11.7881 -44.8943 86.5767 -47.4416
lowerback 0.0988361 -0.959136 6.48145
upperback -0.643325 -1.24956 -0.76686
thorax -0.876412 -0.670118 -4.41686
lowerneck -3.95963 3.54821 -2.64978
upperneck -3.83005 4.88558 0.370455
head -0.593994 2.49826 0.571574
rclavicle 1.92697e-014 -1.41137e-014
rhumerus -25.3672 0.710127 -94.1738
rradius 25.0868
rwrist 33.6596
rhand 12.555 -19.0424
rfingers 7.12502
rthumb 37.5455 -44.9639
lclavicle 1.92697e-014 -1.41137e-014
lhumerus -40.9916 27.5382 76.294
lradius 29.255
lwrist -21.0243
lhand -6.86464 12.3819
lfingers 7.12502
lthumb 19.001 41.4738
rfemur 1.91475 4.23456 22.2653
rtibia 39.2119
rfoot 4.75688 -1.96829
rtoes -31.4995
lfemur -19.1204 -1.35189 -18.553
ltibia 28.2494
lfoot -17.892 16.3106
ltoes -13.2196
196
root -15.3989 17.3991 11.7686 -39.0766 86.7393 -41.4833
lowerback 0.409861 -1.03755 5.97818
upperback -0.714767 -1.33698 -0.93225
thorax -1.1274 -0.721175 -4.29671
lowerneck -3.77072 3.55503 -2.3978
upperneck -3.75471 4.87866 0.425518
head -0.596578 2.48906 0.544181
rclavicle 7.35503e-015 3.57812e-015
rhumerus -25.9611 -1.16174 -93.5937
rradius 24.4155
rwrist 35.1803
rhand 12.8547 -18.9075
rfingers 7.12502
rthumb 37.8286 -44.7532
lclavicle 7.35503e-015 3.57812e-015
lhumerus -40.3362 26.2719 76.9979
lradius 29.741
lwrist -20.0995
lhand -6.96979 12.4387
lfingers 7.12502
lthumb 18.8999 41.5404
rfemur -0.276433 3.71976 21.7357
rtibia 42.5142
rfoot 3.1737 -2.4024
rtoes -30.5952
lfemur -17.7199 -1.10896 -19.0327
ltibia 27.0131
lfoot -18.0836 16.0124
ltoes -12.8154
197
root -15.2304 17.4345 11.7544 -34.5871 87.0489 -36.8833
lowerback 0.784606 -1.17944 5.32783
upperback -0.796452 -1.51033 -0.999233
thorax -1.42651 -0.813165 -3.9869
lowerneck -3.46475 3.56131 -2.45277
upperneck -3.86115 4.88333 0.608386
head -0.685845 2.49088 0.602194
rclavicle -3.21907e-014 -3.97569e-015
rhumerus -26.5608 -2.6557 -92.9131
rradius 23.7942
rwrist 36.6229
rhand 12.6673 -19.1285
rfingers 7.12502
rthumb 37.6515 -45.0217
lclavicle -3.21907e-014 -3.97569e-015
lhumerus -39.6148 25.0047 77.8761
lradius 30.3526
lwrist -18.8808
lhand -6.85229 12.9272
lfingers 7.12502
lthumb 19.0129 42.0179
rfemur -2.42259 3.147 21.3006
rtibia 45.3472
rfoot 1.85476 -3.12673
rtoes -29.8252
lfemur -16.3766 -0.837035 -19.5612
ltibia 25.758
lfoot -18.1475 15.6468
ltoes -12.8944
198
root -15.0617 17.4673 11.7368 -31.4529 87.2875 -33.5473
lowerback 1.2524 -1.31842 4.89138
upperback -0.852806 -1.6779 -1.05035
thorax -1.75385 -0.902514 -3.77774
lowerneck -3.17272 3.59258 -2.5495
upperneck -3.98453 4.92424 0.818464
head -0.78116 2.51116 0.675883
rclavicle 1.24862e-014 -1.43125e-014
rhumerus -27.1796 -4.63706 -91.9662
rradius 23.2847
rwrist 38.1147
rhand 12.7378 -18.9913
rfingers 7.12502
rthumb 37.7182 -44.8667
lclavicle 1.24862e-014 -1.43125e-014
lhumerus -38.942 23.9014 78.5855
lradius 30.6236
lwrist -18.4325
lhand -7.19875 12.6544
lfingers 7.12502
lthumb 18.6797 41.7776
rfemur -4.32102 2.59521 21.0032
rtibia 47.6133
rfoot 0.714756 -3.90944
rtoes -29.3585
lfemur -14.9583 -0.664034 -19.9584
ltibia 24.569
lfoot -18.2158 15.3773
ltoes -12.7211
